# xmcd
#
# Track frame offsets: 
#        150
#        14092
#        31099
#        46400
#        59597
#        72925
#        85340
#        99882
#        114442
#        126247
#        138278
#        161368
#
# Disc length: 2356 seconds
#
# Revision: 0
# Processed by: cddbd v1.5.1PL0 Copyright (c) Steve Scherf et al.
# Submitted via: ExactAudioCopy v0.95b3
#
DISCID=9c09320c
DTITLE=Various Artist - True Blues
DYEAR=2003
DGENRE=Blues
TTITLE0=Muddy Waters - Forty Days and Forty Nights
TTITLE1=Howlin' Wolf - All My Life
TTITLE2=Billie Holiday - Stormy Blues
TTITLE3=Lonnie Johnson - When You Feel Low
TTITLE4=Champion Jack Dupree - Walking Blues
TTITLE5=Smokey Hogg - Overhead Blues
TTITLE6=Big Bill Broonzy - Baby Please Don't Go
TTITLE7=John Lee Hooker - Wandering Blues
TTITLE8=Big Joe Williams - Old Saw Mill Blues
TTITLE9=Charles Brown - Trouble Blues
TTITLE10=Sam "Lightnin" Hopkins - I'm Gonna Meet My Baby Somewhere (Li
TTITLE10=ve)
TTITLE11=Jimmy Witherspoon With Gerry Mulligan and Ben Webster - Trouble
TTITLE11=In Mind (Live)
EXTD=
EXTT0=
EXTT1=
EXTT2=
EXTT3=
EXTT4=
EXTT5=
EXTT6=
EXTT7=
EXTT8=
EXTT9=
EXTT10=
EXTT11=
PLAYORDER=
